<svg width="59" height="9" viewBox="0 0 59 9" fill="none" xmlns="http://www.w3.org/2000/svg">
<path d="M4.65539 0.851074C3.79243 0.851074 3.1103 1.13932 2.609 1.71582C2.11128 2.28874 1.86242 3.07471 1.86242 4.07373C1.86242 5.1014 2.10233 5.89632 2.58214 6.4585C3.06554 7.01709 3.75304 7.29639 4.64464 7.29639C5.1925 7.29639 5.81733 7.19792 6.51916 7.00098V7.80127C5.97488 8.00537 5.3035 8.10742 4.505 8.10742C3.34842 8.10742 2.45503 7.75651 1.82482 7.05469C1.19819 6.35286 0.884878 5.35563 0.884878 4.06299C0.884878 3.25374 1.03527 2.54476 1.33605 1.93604C1.64041 1.32731 2.07726 0.858236 2.6466 0.528809C3.21951 0.199382 3.89269 0.034668 4.66613 0.034668C5.4897 0.034668 6.20942 0.185059 6.82531 0.48584L6.43859 1.27002C5.84419 0.990723 5.24979 0.851074 4.65539 0.851074ZM15.8946 4.06299C15.8946 5.31982 15.5759 6.30811 14.9386 7.02783C14.3048 7.74756 13.4221 8.10742 12.2906 8.10742C11.134 8.10742 10.2406 7.75472 9.61043 7.04932C8.9838 6.34033 8.67049 5.34131 8.67049 4.05225C8.67049 2.77393 8.98559 1.78385 9.6158 1.08203C10.246 0.376628 11.1412 0.0239258 12.3013 0.0239258C13.4293 0.0239258 14.3101 0.381999 14.9439 1.09814C15.5777 1.81429 15.8946 2.80257 15.8946 4.06299ZM9.63728 4.06299C9.63728 5.12646 9.86287 5.93392 10.314 6.48535C10.7688 7.0332 11.4276 7.30713 12.2906 7.30713C13.1607 7.30713 13.8178 7.0332 14.2618 6.48535C14.7058 5.9375 14.9278 5.13005 14.9278 4.06299C14.9278 3.00667 14.7058 2.20638 14.2618 1.66211C13.8214 1.11426 13.1679 0.840332 12.3013 0.840332C11.4312 0.840332 10.7688 1.11605 10.314 1.66748C9.86287 2.21533 9.63728 3.01383 9.63728 4.06299ZM21.9722 8L19.3081 1.03906H19.2652C19.3153 1.59049 19.3404 2.24577 19.3404 3.00488V8H18.4971V0.147461H19.8721L22.3589 6.625H22.4019L24.9102 0.147461H26.2745V8H25.3614V2.94043C25.3614 2.36035 25.3864 1.73014 25.4366 1.0498H25.3936L22.708 8H21.9722ZM34.2588 2.43555C34.2588 3.23047 33.9867 3.84277 33.4424 4.27246C32.9017 4.69857 32.1265 4.91162 31.1167 4.91162H30.1929V8H29.2798V0.147461H31.3154C33.2777 0.147461 34.2588 0.910156 34.2588 2.43555ZM30.1929 4.12744H31.0146C31.8239 4.12744 32.4093 3.99674 32.771 3.73535C33.1326 3.47396 33.3135 3.05501 33.3135 2.47852C33.3135 1.95931 33.1434 1.57259 32.8032 1.31836C32.4631 1.06413 31.9331 0.937012 31.2134 0.937012H30.1929V4.12744ZM41.6899 8L40.7124 5.50244H37.5649L36.5981 8H35.6743L38.7788 0.115234H39.5468L42.6352 8H41.6899ZM40.4277 4.68066L39.5146 2.24756C39.3964 1.93962 39.2747 1.56185 39.1494 1.11426C39.0706 1.45801 38.9578 1.83577 38.811 2.24756L37.8872 4.68066H40.4277ZM50.6947 8H49.6528L45.3613 1.40967H45.3183C45.3756 2.18311 45.4042 2.89209 45.4042 3.53662V8H44.561V0.147461H45.5922L49.873 6.71094H49.9159C49.9088 6.61426 49.8927 6.30452 49.8676 5.78174C49.8425 5.25537 49.8336 4.87939 49.8407 4.65381V0.147461H50.6947V8ZM55.6981 4.07373L57.7929 0.147461H58.7811L56.16 4.95459V8H55.2362V4.99756L52.6205 0.147461H53.6195L55.6981 4.07373Z" fill="white"/>
</svg>
